<?xml version="1.0" encoding="utf-8"?>
<svg version="1.1" id="Calque_1" xmlns="http://www.w3.org/2000/svg" xmlns:xlink="http://www.w3.org/1999/xlink" x="0px" y="0px"
	 width="193px" height="103.2px" viewBox="0 0 193 103.2" style="enable-background:new 0 0 193 103.2;" xml:space="preserve">
<style type="text/css">
	.st0{fill:none;stroke:#1050FF;stroke-width:2;stroke-linejoin:round;stroke-miterlimit:10;}
	.st1{fill:none;stroke:#1050FF;stroke-width:2;stroke-linecap:round;stroke-linejoin:round;stroke-miterlimit:10;}
	.st2{fill:#1050FF;}
	.logo__guru {
		animation-duration: 2s;
		animation-fill-mode: both;
		animation-iteration-count: infinite;
		animation-direction: alternate;
		animation-name: mobile;
	}

	@keyframes mobile {
		from {
			transform: translate3d(0,0,0);
		}

		to {
			transform: translate3d(0, -5px, 0);
		}
	}
</style>
<g>
	<polygon class="st0" points="31,102.2 17,102.2 12,86.2 36,86.2 	"/>
	<polygon class="st0" points="175,102.2 157,102.2 154,78.2 178,78.2 	"/>
	<polygon class="st0" points="98,86.2 95,88.2 92,86.2 92,83.2 95,81.2 98,83.2 	"/>
	<g>
		<polygon class="st1" points="106,102.2 102,91.2 88,91.2 84,102.2 		"/>
	</g>
	<polygon class="st1" points="32,86.2 16,86.2 16,65.2 24,59.2 32,65.2 	"/>
	<line class="st1" x1="16" y1="70.2" x2="13" y2="70.2"/>
	<line class="st1" x1="16" y1="65.2" x2="14" y2="64.2"/>
	<line class="st1" x1="16" y1="76.2" x2="13" y2="76.2"/>
	<line class="st1" x1="16" y1="82.2" x2="13" y2="82.2"/>
	<line class="st1" x1="32" y1="70.2" x2="35" y2="70.2"/>
	<line class="st1" x1="32" y1="76.2" x2="35" y2="76.2"/>
	<line class="st1" x1="32" y1="82.2" x2="35" y2="82.2"/>
	<line class="st1" x1="20" y1="62.2" x2="18" y2="60.2"/>
	<line class="st1" x1="32" y1="65.2" x2="34" y2="64.2"/>
	<line class="st1" x1="28" y1="62.2" x2="30" y2="60.2"/>
	<line class="st1" x1="13.2" y1="90.2" x2="34.8" y2="90.2"/>
	<polyline class="st1" points="20,82.2 22,79.2 20,76.2 22,73.2 20,70.2 22,67.2 	"/>
	<polyline class="st1" points="26,82.2 28,79.2 26,76.2 28,73.2 26,70.2 28,67.2 	"/>
	<g>
		<line class="st1" x1="10" y1="102.2" x2="184" y2="102.2"/>
		<line class="st1" x1="189" y1="102.2" x2="192" y2="102.2"/>
		<line class="st1" x1="1" y1="102.2" x2="4" y2="102.2"/>
	</g>
	<polyline class="st1" points="177.3,84.2 185,84.2 180,96.2 175.8,96.2 	"/>
	<polyline class="st1" points="120,23.2 143,23.2 143,91.2 47,91.2 47,23.2 72,23.2 	"/>
	<line class="st1" x1="47" y1="78.2" x2="143" y2="78.2"/>
</g>
<g class="logo__guru">
	<path class="st2" d="M99.2,14.6c-2.5-1-5.3-0.7-7.6,0.8c-0.7,0.5-1.3,1-1.9,1.7c-1.9,0.8-11.7,5.5-14.8,15.8
		c-1.5,5.2-0.2,8.1,1.2,9.7c-0.3,0.8-0.6,1.7-0.7,3c-0.2,3.1,0.2,5.2,1.4,6.4c0.6,0.6,1.3,1,2.1,1.1v0.1c0,0.9,0.1,1.7,0.2,2.6
		c-0.2,0.5-0.3,1.1-0.2,1.8c0.1,1.6,0.8,3.5,3,4.5c2.7,3.4,6.8,5.7,11.5,5.7h3.7c4.7,0,8.8-2.2,11.5-5.7c2.2-1,2.9-2.9,3-4.5
		c0.1-0.6,0-1.2-0.2-1.8c0.1-0.8,0.2-1.7,0.2-2.6V53c0.8-0.2,1.5-0.5,2.1-1.1c1.2-1.2,1.6-3.3,1.4-6.4c-0.1-1.5-0.5-2.6-0.9-3.4
		c1-1.1,1.6-2.6,2-4.4c0.7-3.8-0.4-8.2-3-12.2C110.2,20.9,105.3,17.1,99.2,14.6z M114,37.3c-0.5,3-2.3,4.8-4.8,4.9
		c-3.5,0.1-7.6-1.8-11.3-5.5c-4.5-4.3-7.7-10.3-7.7-14.3c0-0.1,0-0.2,0-0.3c0.1-1.9,1-3.7,2.7-4.8c1-0.7,2.1-1,3.3-1
		c0.7,0,1.5,0.1,2.2,0.4C111.5,22,114.9,32,114,37.3z M108.3,57.3c-1.9,2-5.9,0.2-8-0.9c-2-1.1-3.6-1.9-4.3-0.1
		c-0.7,1.8,0.2,5.9,7.1,6.4c0.6,0,1.1,0.1,1.6,0c-2.1,1.6-4.7,2.6-7.5,2.6h-3.7c-2.8,0-5.4-1-7.5-2.6c0.5,0,1,0,1.6,0
		c6.9-0.5,7.8-4.6,7.1-6.4c-0.7-1.8-2.3-1-4.3,0.1c-2,1.1-6.1,3-8,0.9c-1.9-2,0.8-4.6,0.8-4.6c-0.7,0-1.3,0.2-1.8,0.5
		c0-0.1,0-0.1,0-0.2V45c0.6,0.1,1.1,0.1,1.7,0.1c1.6,0,3.1-0.3,4.2-0.7c3.6-1.3,7.9-4.3,9.7-5.5c3.9,3.6,8.2,5.6,12.1,5.6
		c0.1,0,0.2,0,0.4,0c0.1,0,0.1,0,0.2,0v8.6c0,0.1,0,0.1,0,0.2c-0.6-0.3-1.2-0.5-1.8-0.5C107.6,52.8,110.2,55.3,108.3,57.3z
		 M77.1,33.5c2-6.8,7.5-11,10.9-13c-0.1,0.5-0.2,1-0.2,1.5c0,0.1,0,0.3,0,0.4c0,4.3,2.9,10.2,7.3,14.8c-1.8,1.3-5.7,3.9-8.8,5
		c-2.1,0.8-6.1,0.9-8.3-1.1C76.4,39.6,76.1,37.1,77.1,33.5z M77.8,45.7c0.1-0.7,0.2-1.3,0.3-1.7c0.3,0.1,0.6,0.3,0.9,0.4v6.2
		c-0.2-0.1-0.3-0.2-0.4-0.3C77.9,49.6,77.6,48.1,77.8,45.7z M111.7,44c0.3-0.1,0.5-0.2,0.7-0.4c0.2,0.5,0.4,1.2,0.4,2.1
		c0.2,2.4-0.1,3.9-0.7,4.6c-0.1,0.1-0.2,0.2-0.4,0.3V44z"/>
</g>
</svg>
