<?xml version="1.0" standalone="no"?>
<!DOCTYPE svg PUBLIC "-//W3C//DTD SVG 20010904//EN"
 "http://www.w3.org/TR/2001/REC-SVG-20010904/DTD/svg10.dtd">
<svg version="1.0" xmlns="http://www.w3.org/2000/svg"
 width="260.000000pt" height="260.000000pt" viewBox="0 0 260.000000 260.000000"
 preserveAspectRatio="xMidYMid meet">
<metadata>
Created by potrace 1.11, written by Peter Selinger 2001-2013
</metadata>
<g transform="translate(0.000000,260.000000) scale(0.100000,-0.100000)"
fill="#000000" stroke="none">
<path d="M1225 2366 c-56 -18 -95 -40 -133 -76 -19 -17 -57 -42 -85 -56 -212
-106 -414 -302 -500 -485 -57 -123 -71 -179 -71 -305 -1 -83 2 -95 33 -156 31
-62 32 -69 20 -105 -16 -50 -16 -187 1 -247 14 -52 52 -97 100 -118 33 -14 35
-27 31 -155 -2 -49 3 -74 23 -118 13 -30 29 -55 34 -55 5 0 50 -38 101 -84
164 -149 256 -184 493 -185 252 -1 370 41 508 178 25 25 62 59 83 74 63 47 80
94 81 224 1 61 3 113 6 115 3 2 23 12 45 24 62 32 88 92 91 213 2 69 -2 111
-15 151 -17 54 -17 55 5 88 70 102 82 285 30 435 -85 243 -273 441 -554 583
-144 74 -233 90 -327 60z m271 -135 c284 -138 471 -343 532 -583 45 -178 -1
-337 -113 -384 -97 -40 -280 10 -420 116 -266 200 -458 547 -405 734 22 78 96
148 175 166 68 15 123 4 231 -49z m-511 -199 c1 -156 84 -340 234 -520 61 -73
67 -61 -64 -141 -95 -58 -208 -115 -250 -126 -53 -14 -59 -15 -115 -15 -220
-1 -310 130 -245 358 52 183 189 361 378 489 34 23 62 43 62 43 0 0 0 -39 0
-88z m597 -810 c77 -37 165 -61 235 -66 l48 -3 2 -172 1 -172 -34 7 c-39 7
-41 3 -17 -32 9 -14 17 -45 17 -69 3 -119 -134 -140 -317 -49 -114 56 -144 65
-172 52 -43 -19 -53 -95 -20 -157 39 -75 129 -121 264 -135 30 -3 56 -7 58
-10 9 -9 -97 -59 -162 -76 -89 -23 -295 -25 -386 -4 -63 15 -184 72 -174 82 3
4 28 7 56 9 186 9 316 123 279 246 -12 42 -40 59 -80 47 -14 -4 -64 -27 -113
-50 -142 -68 -226 -81 -284 -44 -24 15 -51 61 -47 82 1 6 2 21 3 31 0 11 12
33 26 49 32 39 32 41 -9 32 l-34 -8 0 159 -1 159 62 1 c104 1 162 16 270 70
93 46 143 75 232 134 l66 43 82 -62 c45 -34 112 -76 149 -94z m411 -150 c2
-84 -14 -152 -34 -152 -15 0 -11 258 4 263 21 7 29 -21 30 -111z m-1377 84 c9
-22 10 -236 2 -236 -31 0 -53 115 -41 213 5 38 28 51 39 23z"/>
</g>
</svg>
