<svg xmlns="http://www.w3.org/2000/svg" width="42.2" height="53.8"><path d="M25 .6c-2.5-1-5.3-.7-7.6.8-.7.5-1.3 1-1.9 1.7C13.6 3.9 3.8 8.6.7 18.9-.8 24.1.5 27 1.9 28.6c-.3.8-.6 1.7-.7 3-.2 3.1.2 5.2 1.4 6.4.6.6 1.3 1 2.1 1.1v.1c0 .9.1 1.7.2 2.6-.2.5-.3 1.1-.2 1.8.1 1.6.8 3.5 3 4.5 2.7 3.4 6.8 5.7 11.5 5.7h3.7c4.7 0 8.8-2.2 11.5-5.7 2.2-1 2.9-2.9 3-4.5.1-.6 0-1.2-.2-1.8.1-.8.2-1.7.2-2.6V39c.8-.2 1.5-.5 2.1-1.1 1.2-1.2 1.6-3.3 1.4-6.4-.1-1.5-.5-2.6-.9-3.4 1-1.1 1.6-2.6 2-4.4.7-3.8-.4-8.2-3-12.2-3-4.6-7.9-8.4-14-10.9zm14.8 22.7c-.5 3-2.3 4.8-4.8 4.9-3.5.1-7.6-1.8-11.3-5.5C19.2 18.4 16 12.4 16 8.4v-.3c.1-1.9 1-3.7 2.7-4.8 1-.7 2.1-1 3.3-1 .7 0 1.5.1 2.2.4C37.3 8 40.7 18 39.8 23.3zm-5.7 20c-1.9 2-5.9.2-8-.9-2-1.1-3.6-1.9-4.3-.1-.7 1.8.2 5.9 7.1 6.4.6 0 1.1.1 1.6 0-2.1 1.6-4.7 2.6-7.5 2.6h-3.7c-2.8 0-5.4-1-7.5-2.6h1.6c6.9-.5 7.8-4.6 7.1-6.4-.7-1.8-2.3-1-4.3.1s-6.1 3-8 .9c-1.9-2 .8-4.6.8-4.6-.7 0-1.3.2-1.8.5V31c.6.1 1.1.1 1.7.1 1.6 0 3.1-.3 4.2-.7 3.6-1.3 7.9-4.3 9.7-5.5 3.9 3.6 8.2 5.6 12.1 5.6H35.5V39.3c-.6-.3-1.2-.5-1.8-.5-.3 0 2.3 2.5.4 4.5zM2.9 19.5c2-6.8 7.5-11 10.9-13-.1.5-.2 1-.2 1.5v.4c0 4.3 2.9 10.2 7.3 14.8-1.8 1.3-5.7 3.9-8.8 5-2.1.8-6.1.9-8.3-1.1-1.6-1.5-1.9-4-.9-7.6zm.7 12.2c.1-.7.2-1.3.3-1.7.3.1.6.3.9.4v6.2c-.2-.1-.3-.2-.4-.3-.7-.7-1-2.2-.8-4.6zM37.5 30c.3-.1.5-.2.7-.4.2.5.4 1.2.4 2.1.2 2.4-.1 3.9-.7 4.6-.1.1-.2.2-.4.3V30z" fill="#1050ff"/></svg>